<svg width="149" height="65" viewBox="0 0 149 65" fill="none" xmlns="http://www.w3.org/2000/svg">
<path d="M118 0.857764C116.576 5.16851 114.45 7.86659 111.438 11.2328C101.426 22.9481 95.4756 35.761 89.8049 50.0223C89.3679 51.1063 88.9308 52.1902 88.4805 53.307C88.0979 54.2798 87.7152 55.2527 87.321 56.255C85.8739 59.1062 84.4851 60.8514 82 62.8578C76.5817 63.6318 76.5817 63.6318 74 62.8578C69.4812 59.1631 67.2149 54.9152 64.6875 49.7953C59.1592 39.0133 52.8033 29.4488 44.7852 20.3304C42.9175 17.7435 42.3537 15.9962 42 12.8578C46.8832 10.8544 51.8076 9.43419 57 10.8578C60.0686 13.3655 61.9418 16.5021 64 19.8578C64.3719 20.4577 64.7438 21.0576 65.127 21.6756C68.3945 26.9635 71.5992 32.2919 74.5781 37.7484C75.8924 40.1607 75.8924 40.1607 79 40.8578C79.33 39.7028 79.66 38.5478 80 37.3578C82.2816 30.5237 85.6302 24.2021 88.9712 17.8382C89.9299 15.9928 90.8481 14.132 91.7617 12.264C96.3181 3.51232 96.3181 3.51232 101.625 1.67026C103.075 1.35914 104.534 1.08268 106 0.857764C106.866 0.610264 107.733 0.362764 108.625 0.107764C111.864 -0.23314 114.808 0.294411 118 0.857764Z" fill="white"/>
<path d="M136.767 17.1934C142.678 21.4162 146.369 25.8394 148.372 32.8848C149.185 40.5081 149.244 47.6584 144.372 53.8848C138.634 60.1686 132.922 63.3711 124.497 64.3223C117.416 63.9745 111.27 61.3173 106.435 56.1348C101.893 50.3407 99.723 44.5771 100.028 37.1739C101.17 29.5722 105.494 22.7464 111.372 17.8848C119.534 13.0829 128.352 12.5947 136.767 17.1934ZM114.497 32.5723C112.695 36.2754 112.717 39.8546 113.372 43.8848C115.442 47.3597 117.488 49.6283 121.372 50.8848C125.363 51.4054 127.067 51.0548 130.622 49.0723C133.348 46.9042 135.107 45.3476 135.743 41.834C135.865 37.6687 135.792 34.7832 133.122 31.4473C126.205 25.0016 121.338 26.4155 114.497 32.5723Z" fill="white"/>
<path d="M36.2667 16.8579C41.4311 20.3288 44.734 24.1845 47.2667 29.8579C47.7042 33.1704 47.7042 33.1704 47.2667 35.8579C44.3589 37.7964 42.89 38.2988 39.5558 38.9282C38.6406 39.1022 37.7253 39.2763 36.7824 39.4556C35.3515 39.7166 35.3515 39.7166 33.8917 39.9829C32.9456 40.1647 31.9994 40.3464 31.0245 40.5337C26.6962 41.3422 22.6833 41.9594 18.2667 41.8579C17.9367 40.8679 17.6067 39.8779 17.2667 38.8579C20.669 35.2555 24.1403 32.5776 28.2667 29.8579C28.5967 29.1979 28.9267 28.5379 29.2667 27.8579C23.0426 27.3666 23.0426 27.3666 17.3292 29.5454C14.0797 33.1888 13.2417 35.4553 13.3292 40.3579C14.4925 44.7008 15.5565 46.3071 19.2667 48.8579C22.3658 49.4379 25.166 49.4243 28.2667 48.8579C30.474 47.3699 30.474 47.3699 32.2667 45.8579C36.6638 45.9706 39.0533 48.0117 42.2667 50.8579C42.2667 53.5454 42.2667 53.5454 41.2667 56.8579C35.23 61.9743 29.2386 63.2877 21.4738 63.1938C15.4505 62.5629 10.6132 60.2725 6.38392 55.9204C0.648059 48.6051 -0.64812 42.0651 0.266736 32.8579C2.02273 25.645 6.18688 20.9518 12.2667 16.8579C20.1844 12.5461 28.3322 12.6282 36.2667 16.8579Z" fill="white"/>
</svg>
